<svg xmlns="http://www.w3.org/2000/svg" viewBox="0 0 647 136.78"><defs><style>.cls-1{fill-opacity:0.47;}.cls-2{fill:none;stroke-width:2px;}.cls-2,.cls-3{stroke:#f80afb;}.cls-3{fill:#f80afb;}</style></defs><title>Fichier 1</title><g id="Calque_2" data-name="Calque 2"><g id="Calque_1-2" data-name="Calque 1"><path class="cls-1" d="M0,0H612l17,9.94,18,11.45V136.78H24l-11.5-7.54L0,121.41Z"/><path class="cls-2" d="M13.05,128.41h0L1,120.86V1H611.73l16.73,9.79,0,0L646,21.94V135.78H24.3Z"/><path class="cls-3" d="M609.9,7.89l28.87,17.79,0-2.75L609.92,5.14Z"/><path class="cls-3" d="M609.9,13.44l28.87,17.79,0-2.74-28.87-17.8Z"/><path class="cls-3" d="M4.46,111.76l22.33,15.36-.29-2.73L4.17,109Z"/><path class="cls-3" d="M5.09,117.27l22.33,15.37-.29-2.73L4.8,114.54Z"/></g></g></svg>